<svg width="140" height="289" viewBox="0 0 140 289" fill="none" xmlns="http://www.w3.org/2000/svg">
<path d="M137.5 131.5L138.484 131.679L137.5 131.5ZM67.5 218L66.513 217.839L67.5 218ZM85.2929 288.207C85.6834 288.598 86.3166 288.598 86.7071 288.207L93.0711 281.843C93.4616 281.453 93.4616 280.819 93.0711 280.429C92.6805 280.038 92.0474 280.038 91.6569 280.429L86 286.086L80.3431 280.429C79.9526 280.038 79.3195 280.038 78.9289 280.429C78.5384 280.819 78.5384 281.453 78.9289 281.843L85.2929 288.207ZM1 1.5C0.607749 2.41986 0.60774 2.41985 0.607732 2.41985C0.607733 2.41985 0.607729 2.41985 0.60773 2.41985C0.607733 2.41985 0.607746 2.41986 0.607769 2.41987C0.607813 2.41989 0.607896 2.41992 0.608017 2.41997C0.60826 2.42008 0.608655 2.42024 0.609203 2.42048C0.610298 2.42095 0.612003 2.42167 0.614316 2.42266C0.618941 2.42464 0.625996 2.42766 0.63546 2.43171C0.654387 2.43982 0.68295 2.45208 0.720982 2.46844C0.797046 2.50118 0.910986 2.55038 1.06148 2.61578C1.36246 2.74657 1.80964 2.94215 2.39242 3.20047L3.20288 1.37204C2.61551 1.11169 2.16387 0.914145 1.85856 0.781477C1.70591 0.715142 1.58984 0.665025 1.51168 0.631384C1.4726 0.614563 1.443 0.601861 1.42304 0.59331C1.41306 0.589034 1.40549 0.585797 1.40035 0.583601C1.39778 0.582502 1.39582 0.581665 1.39447 0.581088C1.39379 0.5808 1.39327 0.580577 1.3929 0.580419C1.39272 0.58034 1.39257 0.580278 1.39246 0.580231C1.39241 0.580208 1.39236 0.580189 1.39233 0.580174C1.39231 0.580167 1.39229 0.580159 1.39228 0.580155C1.39227 0.580148 1.39225 0.580142 1 1.5ZM5.96368 4.8111C7.03422 5.30121 8.2498 5.86368 9.59621 6.49576L10.4461 4.68532C9.0937 4.05043 7.87233 3.48528 6.7962 2.99261L5.96368 4.8111ZM13.182 8.19791C14.3098 8.73912 15.5006 9.31586 16.7488 9.92707L17.6284 8.13086C16.3753 7.51724 15.1797 6.93818 14.0472 6.39475L13.182 8.19791ZM20.3219 11.694C21.4814 12.2729 22.6796 12.8766 23.9131 13.5043L24.8202 11.7219C23.5821 11.0917 22.3793 10.4858 21.2154 9.90461L20.3219 11.694ZM27.4212 15.3062C28.5705 15.902 29.7451 16.5162 30.9425 17.1484L31.8763 15.3798C30.6744 14.7452 29.4953 14.1286 28.3416 13.5306L27.4212 15.3062ZM34.4898 19.0388C35.6263 19.6501 36.7799 20.2761 37.9489 20.9164L38.9098 19.1624C37.7362 18.5195 36.5781 17.8911 35.4372 17.2775L34.4898 19.0388ZM41.4514 22.8531C42.59 23.4885 43.7407 24.1366 44.902 24.797L45.8907 23.0585C44.7246 22.3954 43.5692 21.7446 42.4261 21.1067L41.4514 22.8531ZM48.3581 26.7813C49.4938 27.4397 50.6379 28.1092 51.7889 28.7895L52.8066 27.0678C51.6506 26.3845 50.5016 25.7122 49.3611 25.051L48.3581 26.7813ZM55.2031 30.8278C56.3313 31.5081 57.4647 32.1983 58.602 32.8983L59.6503 31.195C58.5077 30.4918 57.3691 29.7984 56.2359 29.1151L55.2031 30.8278ZM61.976 34.9965C63.0936 35.6989 64.2136 36.4102 65.3349 37.1304L66.4157 35.4475C65.2887 34.7238 64.1632 34.0089 63.0402 33.3032L61.976 34.9965ZM68.667 39.2942C69.7715 40.0196 70.8761 40.7532 71.9796 41.4948L73.0952 39.8348C71.9857 39.0891 70.8752 38.3516 69.7649 37.6225L68.667 39.2942ZM75.2655 43.7296C76.3548 44.4795 77.4419 45.237 78.5257 46.0019L79.6789 44.3679C78.5886 43.5984 77.4951 42.8364 76.3995 42.0822L75.2655 43.7296ZM81.7586 48.3134C82.8304 49.0899 83.8978 49.8734 84.9597 50.6639L86.154 49.0597C85.0849 48.2638 84.0105 47.4751 82.9319 46.6937L81.7586 48.3134ZM88.1308 53.0583C89.1824 53.8639 90.2273 54.6761 91.2645 55.4949L92.5037 53.9251C91.4587 53.1001 90.4061 52.2819 89.347 51.4706L88.1308 53.0583ZM94.3629 57.9795C95.3908 58.8171 96.4096 59.661 97.4184 60.5111L98.7072 58.9817C97.6898 58.1244 96.6624 57.2734 95.6263 56.429L94.3629 57.9795ZM100.431 63.0949C101.43 63.9679 102.418 64.8468 103.393 65.7316L104.737 64.2504C103.752 63.3569 102.755 62.4695 101.746 61.5885L100.431 63.0949ZM106.303 68.4257C107.268 69.3377 108.219 70.2554 109.153 71.1786L110.559 69.7556C109.613 68.8218 108.652 67.8939 107.677 66.9722L106.303 68.4257ZM111.94 73.9964C112.862 74.9513 113.766 75.9117 114.651 76.8771L116.126 75.5256C115.228 74.547 114.312 73.5742 113.379 72.6073L111.94 73.9964ZM117.288 79.8349C118.156 80.8366 119.002 81.8434 119.825 82.855L121.376 81.5928C120.54 80.5647 119.68 79.5422 118.8 78.5256L117.288 79.8349ZM122.274 85.9709C123.073 87.023 123.845 88.0798 124.59 89.1409L126.227 87.992C125.467 86.9098 124.68 85.8331 123.868 84.7621L122.274 85.9709ZM126.802 92.433C127.514 93.5437 128.196 94.6585 128.844 95.7772L130.574 94.7745C129.91 93.6285 129.213 92.4878 128.485 91.3528L126.802 92.433ZM130.738 99.2426C131.342 100.419 131.908 101.598 132.434 102.781L134.262 101.968C133.72 100.75 133.138 99.5366 132.517 98.3289L130.738 99.2426ZM133.915 106.403C134.376 107.641 134.792 108.882 135.161 110.126L137.078 109.557C136.696 108.268 136.266 106.984 135.789 105.705L133.915 106.403ZM136.13 113.899C136.408 115.179 136.634 116.462 136.806 117.747L138.788 117.482C138.609 116.142 138.374 114.806 138.085 113.475L136.13 113.899ZM137.157 121.623C137.218 122.919 137.222 124.217 137.166 125.516L139.164 125.602C139.222 124.241 139.218 122.883 139.155 121.529L137.157 121.623ZM136.823 129.384C136.736 130.029 136.634 130.675 136.516 131.321L138.484 131.679C138.607 131.003 138.714 130.327 138.805 129.651L136.823 129.384ZM136.516 131.321C136.394 131.989 136.259 132.647 136.111 133.296L138.061 133.742C138.215 133.064 138.357 132.377 138.484 131.679L136.516 131.321ZM135.047 137.143C134.628 138.424 134.157 139.668 133.636 140.875L135.473 141.667C136.017 140.404 136.51 139.104 136.948 137.763L135.047 137.143ZM131.892 144.468C131.254 145.646 130.569 146.79 129.839 147.903L131.512 149C132.271 147.841 132.985 146.649 133.651 145.42L131.892 144.468ZM127.513 151.17C126.698 152.229 125.843 153.26 124.953 154.268L126.453 155.592C127.37 154.553 128.253 153.486 129.097 152.39L127.513 151.17ZM122.199 157.21C121.256 158.161 120.284 159.094 119.286 160.009L120.639 161.483C121.657 160.548 122.653 159.593 123.62 158.617L122.199 157.21ZM116.248 162.687C115.222 163.559 114.175 164.417 113.113 165.265L114.361 166.828C115.437 165.969 116.499 165.098 117.542 164.212L116.248 162.687ZM109.908 167.765C108.832 168.586 107.745 169.401 106.651 170.211L107.842 171.818C108.941 171.003 110.036 170.183 111.121 169.354L109.908 167.765ZM103.362 172.628C102.265 173.429 101.157 174.236 100.059 175.038L101.24 176.653C102.341 175.848 103.438 175.05 104.542 174.243L103.362 172.628ZM96.7605 177.466C95.6611 178.282 94.5672 179.104 93.4835 179.934L94.6997 181.522C95.7736 180.699 96.8593 179.884 97.9529 179.072L96.7605 177.466ZM90.248 182.468C89.1742 183.33 88.1149 184.204 87.075 185.093L88.3746 186.613C89.3969 185.74 90.44 184.879 91.5 184.028L90.248 182.468ZM83.9886 187.836C82.9733 188.776 81.9825 189.736 81.0212 190.719L82.4509 192.118C83.3871 191.161 84.3542 190.224 85.3477 189.303L83.9886 187.836ZM78.2083 193.765C77.2985 194.812 76.4241 195.886 75.5903 196.991L77.1867 198.195C77.991 197.13 78.8362 196.091 79.718 195.076L78.2083 193.765ZM73.2112 200.408C72.4657 201.576 71.7658 202.778 71.117 204.017L72.8888 204.945C73.5099 203.758 74.1808 202.606 74.8969 201.485L73.2112 200.408ZM69.3503 207.798C68.826 209.069 68.3542 210.377 67.9395 211.727L69.8512 212.314C70.2474 211.025 70.6981 209.775 71.1992 208.56L69.3503 207.798ZM66.8984 215.768C66.7559 216.449 66.6272 217.139 66.513 217.839L68.487 218.161C68.5964 217.49 68.7195 216.829 68.8559 216.178L66.8984 215.768ZM66.513 217.839C66.401 218.526 66.3086 219.213 66.2349 219.899L68.2235 220.112C68.2933 219.462 68.3809 218.811 68.487 218.161L66.513 217.839ZM66.0095 224.039C66.0049 225.42 66.0687 226.798 66.1924 228.17L68.1843 227.991C68.0658 226.676 68.0051 225.361 68.0095 224.045L66.0095 224.039ZM66.7326 232.26C66.9649 233.607 67.2477 234.949 67.5729 236.284L69.5161 235.811C69.2007 234.516 68.9275 233.218 68.7035 231.92L66.7326 232.26ZM68.6576 240.238C69.0526 241.539 69.4813 242.834 69.9359 244.123L71.8219 243.457C71.376 242.193 70.9568 240.926 70.5713 239.657L68.6576 240.238ZM71.3619 247.944C71.857 249.208 72.3707 250.464 72.8955 251.713L74.7393 250.938C74.2195 249.702 73.7122 248.46 73.2241 247.214L71.3619 247.944ZM74.4997 255.443C75.0443 256.686 75.5936 257.921 76.1394 259.147L77.9664 258.333C77.4207 257.108 76.8736 255.877 76.3315 254.64L74.4997 255.443ZM77.7807 262.842C78.3291 264.085 78.8662 265.318 79.3847 266.54L81.2258 265.759C80.7024 264.525 80.1612 263.283 79.6106 262.035L77.7807 262.842ZM80.9084 270.256C81.4059 271.521 81.873 272.771 82.3011 274.008L84.191 273.353C83.7523 272.086 83.2752 270.809 82.7696 269.524L80.9084 270.256ZM83.4975 277.809C83.8623 279.113 84.17 280.397 84.4102 281.661L86.375 281.288C86.1229 279.96 85.8014 278.62 85.4236 277.27L83.4975 277.809ZM84.9288 285.552C84.9758 286.207 85 286.857 85 287.5H87C87 286.807 86.9739 286.11 86.9237 285.409L84.9288 285.552Z" fill="#67B765"/>
</svg>
