<svg width="219" height="73" viewBox="0 0 219 73" fill="none" xmlns="http://www.w3.org/2000/svg">
<path d="M90.5 1.99994L90.3612 2.99026L90.5 1.99994ZM218.632 66.2747C219.06 65.9255 219.124 65.2955 218.775 64.8677L213.083 57.8957C212.734 57.4679 212.104 57.4042 211.676 57.7534C211.248 58.1027 211.185 58.7326 211.534 59.1605L216.593 65.3578L210.396 70.4168C209.968 70.766 209.904 71.396 210.253 71.8238C210.603 72.2516 211.233 72.3153 211.66 71.9661L218.632 66.2747ZM2.24859 42.163C2.6685 41.6889 3.09959 41.2072 3.54178 40.7186L2.0589 39.3765C1.61173 39.8706 1.17588 40.3577 0.751412 40.837L2.24859 42.163ZM6.17877 37.8696C7.04729 36.9525 7.95114 36.0189 8.88998 35.0741L7.4713 33.6644C6.52057 34.6212 5.60556 35.5662 4.72662 36.4943L6.17877 37.8696ZM11.6586 32.3568C12.5789 31.4762 13.5282 30.5903 14.5062 29.7031L13.1624 28.2218C12.1707 29.1215 11.2084 30.0194 10.2759 30.9117L11.6586 32.3568ZM17.4123 27.1388C18.3818 26.3071 19.3763 25.4777 20.3956 24.6537L19.1382 23.0983C18.1033 23.935 17.0938 24.7769 16.1101 25.6208L17.4123 27.1388ZM23.4528 22.2579C24.4715 21.4847 25.5125 20.7193 26.5756 19.9647L25.418 18.3338C24.3369 19.1012 23.2787 19.8792 22.2436 20.6649L23.4528 22.2579ZM29.7737 17.7737C30.8439 17.0667 31.9346 16.3724 33.0456 15.6933L32.0025 13.9868C30.871 14.6785 29.7605 15.3854 28.6713 16.1049L29.7737 17.7737ZM36.3886 13.7326C37.506 13.1047 38.6423 12.4935 39.7974 11.9014L38.885 10.1216C37.7066 10.7257 36.5478 11.349 35.4088 11.989L36.3886 13.7326ZM43.275 10.2047C44.4384 9.66566 45.6196 9.147 46.8183 8.65086L46.0534 6.8029C44.8286 7.30986 43.6221 7.83963 42.4343 8.38996L43.275 10.2047ZM50.4233 7.24797C51.6275 6.80902 52.8483 6.39357 54.0855 6.00364L53.4843 4.09613C52.2184 4.49511 50.9697 4.92007 49.7383 5.36892L50.4233 7.24797ZM57.7969 4.92554C59.0328 4.59689 60.2841 4.2943 61.5509 4.01962L61.127 2.06504C59.8296 2.34638 58.5482 2.65625 57.2829 2.99271L57.7969 4.92554ZM65.3428 3.29027C66.6024 3.07871 67.8764 2.89519 69.1648 2.74144L68.9278 0.755532C67.6076 0.913093 66.3021 1.10114 65.0115 1.3179L65.3428 3.29027ZM73.0088 2.37569C74.2812 2.28527 75.567 2.22422 76.8661 2.19409L76.8197 0.194632C75.4886 0.225504 74.171 0.288063 72.867 0.380723L73.0088 2.37569ZM80.7281 2.19618C82.0019 2.22698 83.288 2.28778 84.5863 2.37996L84.728 0.384986C83.3986 0.290596 82.0814 0.228321 80.7764 0.196762L80.7281 2.19618ZM88.4328 2.74206C89.0727 2.81707 89.7155 2.89974 90.3612 2.99026L90.6388 1.00962C89.9783 0.917021 89.3205 0.832419 88.6656 0.75566L88.4328 2.74206ZM90.3612 2.99026C91.0213 3.0828 91.6778 3.18212 92.3307 3.28804L92.6509 1.31385C91.984 1.20564 91.3133 1.10417 90.6388 1.00962L90.3612 2.99026ZM96.2215 4.00472C97.5212 4.27278 98.8067 4.56673 100.079 4.88512L100.564 2.94499C99.2657 2.61993 97.953 2.31974 96.6255 2.04595L96.2215 4.00472ZM103.906 5.92738C105.179 6.30226 106.439 6.70119 107.687 7.12262L108.327 5.22784C107.055 4.79818 105.77 4.39127 104.47 4.00877L103.906 5.92738ZM111.419 8.46331C112.658 8.93492 113.885 9.42806 115.1 9.94112L115.878 8.09863C114.641 7.57657 113.392 7.07449 112.13 6.59411L111.419 8.46331ZM118.729 11.5469C119.933 12.1035 121.125 12.6787 122.307 13.2709L123.203 11.4828C122.003 10.8817 120.792 10.2974 119.569 9.73165L118.729 11.5469ZM125.834 15.1036C127.003 15.7322 128.163 16.3762 129.313 17.0341L130.306 15.298C129.141 14.6319 127.967 13.9794 126.781 13.3421L125.834 15.1036ZM132.744 19.0517C133.881 19.7384 135.01 20.4372 136.131 21.1465L137.201 19.4563C136.068 18.7401 134.927 18.0339 133.777 17.3395L132.744 19.0517ZM139.48 23.3084C140.591 24.04 141.695 24.7803 142.793 25.5276L143.919 23.8743C142.813 23.1217 141.7 22.3756 140.579 21.6379L139.48 23.3084ZM146.077 27.7945C147.17 28.5584 148.257 29.3276 149.339 30.1003L150.501 28.4726C149.414 27.6967 148.322 26.9237 147.224 26.1555L146.077 27.7945ZM152.584 32.4358C153.665 33.2198 154.743 34.0055 155.817 34.7911L156.998 33.1767C155.922 32.39 154.842 31.6026 153.757 30.8164L152.584 32.4358ZM159.047 37.157C160.126 37.9484 161.204 38.7381 162.279 39.5236L163.459 37.9086C162.385 37.1242 161.309 36.3355 160.229 35.544L159.047 37.157ZM165.521 41.8811C166.608 42.667 167.694 43.447 168.781 44.2189L169.939 42.5887C168.858 41.8205 167.777 41.0437 166.693 40.2603L165.521 41.8811ZM172.066 46.5262C173.17 47.2922 174.276 48.0479 175.384 48.791L176.498 47.1302C175.4 46.3934 174.303 45.6435 173.205 44.8826L172.066 46.5262ZM178.745 51.0019C179.88 51.7317 181.016 52.4465 182.157 53.1437L183.2 51.4372C182.074 50.7487 180.95 50.0423 179.828 49.3201L178.745 51.0019ZM185.626 55.2002C186.798 55.8728 187.975 56.5249 189.158 57.1541L190.097 55.3883C188.934 54.7699 187.776 54.1282 186.621 53.4656L185.626 55.2002ZM192.759 58.9867C193.976 59.5773 195.201 60.1418 196.434 60.6775L197.231 58.8432C196.025 58.3192 194.826 57.7665 193.632 57.1873L192.759 58.9867ZM200.185 62.2052C201.45 62.6856 202.724 63.134 204.01 63.5477L204.623 61.6438C203.371 61.2411 202.129 60.8042 200.895 60.3355L200.185 62.2052ZM207.906 64.6832C209.213 65.0244 210.532 65.3282 211.864 65.592L212.253 63.6301C210.961 63.3743 209.681 63.0794 208.411 62.7481L207.906 64.6832ZM215.873 66.257C216.545 66.3469 217.22 66.4263 217.899 66.495L218.101 64.5051C217.443 64.4386 216.789 64.3617 216.138 64.2747L215.873 66.257Z" fill="#67B765"/>
</svg>
