<svg width="202" height="60" viewBox="0 0 202 60" fill="none" xmlns="http://www.w3.org/2000/svg">
<path d="M107.5 54.5L107.244 53.5333L107.5 54.5ZM201.707 8.20711C202.098 7.81658 202.098 7.18342 201.707 6.79289L195.343 0.428932C194.953 0.0384079 194.319 0.0384079 193.929 0.428932C193.538 0.819456 193.538 1.45262 193.929 1.84315L199.586 7.5L193.929 13.1569C193.538 13.5474 193.538 14.1805 193.929 14.5711C194.319 14.9616 194.953 14.9616 195.343 14.5711L201.707 8.20711ZM1 47C0.699635 47.9538 0.699656 47.9538 0.69968 47.9538C0.699692 47.9538 0.699718 47.9539 0.699741 47.9539C0.699787 47.9539 0.699843 47.9539 0.69991 47.9539C0.700044 47.954 0.700219 47.954 0.700435 47.9541C0.700868 47.9542 0.701467 47.9544 0.702232 47.9546C0.703762 47.9551 0.705954 47.9558 0.708807 47.9567C0.714512 47.9585 0.722858 47.9611 0.733823 47.9645C0.755751 47.9714 0.788154 47.9815 0.830852 47.9947C0.916249 48.0211 1.04283 48.06 1.20917 48.1104C1.54186 48.2114 2.03361 48.3586 2.67305 48.5447L3.232 46.6244C2.60009 46.4405 2.11558 46.2954 1.78984 46.1966C1.62697 46.1472 1.5038 46.1093 1.42175 46.0839C1.38072 46.0713 1.34997 46.0617 1.32968 46.0554C1.31954 46.0522 1.31201 46.0498 1.30711 46.0483C1.30467 46.0475 1.30288 46.047 1.30175 46.0466C1.30119 46.0464 1.30079 46.0463 1.30056 46.0462C1.30045 46.0462 1.30037 46.0462 1.30034 46.0462C1.30032 46.0462 1.30032 46.0462 1.30032 46.0462C1.30032 46.0462 1.30033 46.0462 1.30034 46.0462C1.30035 46.0462 1.30037 46.0462 1 47ZM6.72485 49.6784C7.91063 49.9984 9.25462 50.3517 10.7415 50.7284L11.2327 48.7897C9.75628 48.4156 8.42226 48.0649 7.24596 47.7474L6.72485 49.6784ZM14.7745 51.7197C16.0598 52.0261 17.4182 52.3409 18.8432 52.6601L19.2803 50.7084C17.8646 50.3913 16.515 50.0785 15.2382 49.7742L14.7745 51.7197ZM22.9219 53.5448C24.2365 53.8207 25.5952 54.097 26.9942 54.371L27.3786 52.4083C25.9888 52.136 24.6388 51.8616 23.3327 51.5875L22.9219 53.5448ZM31.085 55.1434C32.4238 55.3867 33.7928 55.6262 35.189 55.8598L35.5191 53.8872C34.1324 53.6552 32.7726 53.4173 31.4426 53.1756L31.085 55.1434ZM39.304 56.518C40.6583 56.7247 42.0341 56.9245 43.4286 57.116L43.7007 55.1346C42.3163 54.9445 40.9504 54.7461 39.6056 54.5409L39.304 56.518ZM47.5624 57.6511C48.9289 57.8172 50.3104 57.9742 51.7049 58.1206L51.9138 56.1316C50.5305 55.9863 49.1597 55.8305 47.8036 55.6658L47.5624 57.6511ZM55.8555 58.5212C57.2319 58.642 58.6186 58.7517 60.0135 58.8489L60.1525 56.8538C58.77 56.7574 57.3953 56.6487 56.0304 56.5288L55.8555 58.5212ZM64.1778 59.0998C65.5622 59.1698 66.9527 59.2265 68.3473 59.2688L68.4079 57.2697C67.0272 57.2279 65.6502 57.1717 64.2789 57.1023L64.1778 59.0998ZM72.5204 59.3507C73.9102 59.3629 75.3024 59.3595 76.6951 59.3396L76.6664 57.3398C75.2896 57.3595 73.9128 57.3628 72.5379 57.3508L72.5204 59.3507ZM80.8695 59.2287C82.2622 59.1742 83.6536 59.1018 85.0421 59.0104L84.9106 57.0147C83.5406 57.105 82.1669 57.1764 80.7913 57.2302L80.8695 59.2287ZM89.2096 58.6764C90.6012 58.5444 91.9879 58.3918 93.3678 58.2173L93.1169 56.2331C91.7584 56.4049 90.3924 56.5553 89.0208 56.6854L89.2096 58.6764ZM97.5115 57.6227C98.8953 57.3997 100.27 57.1529 101.634 56.881L101.243 54.9196C99.9044 55.1865 98.5538 55.4289 97.1934 55.6481L97.5115 57.6227ZM105.728 55.9798C106.408 55.8157 107.083 55.6447 107.756 55.4667L107.244 53.5333C106.586 53.7075 105.924 53.875 105.258 54.0358L105.728 55.9798ZM107.756 55.4667C108.423 55.2902 109.086 55.1028 109.747 54.9051L109.174 52.9891C108.533 53.1808 107.89 53.3624 107.244 53.5333L107.756 55.4667ZM113.67 53.6002C114.96 53.1288 116.239 52.6204 117.507 52.0789L116.722 50.2395C115.484 50.7679 114.238 51.2632 112.983 51.7217L113.67 53.6002ZM121.256 50.3718C122.488 49.7771 123.71 49.154 124.924 48.5062L123.982 46.7418C122.79 47.3778 121.592 47.9887 120.387 48.5709L121.256 50.3718ZM128.515 46.5079C129.696 45.8246 130.869 45.121 132.037 44.4004L130.986 42.6985C129.834 43.41 128.676 44.1038 127.513 44.7767L128.515 46.5079ZM135.498 42.2058C136.64 41.4637 137.777 40.7084 138.909 39.9434L137.789 38.2865C136.665 39.0456 135.539 39.7942 134.408 40.5288L135.498 42.2058ZM142.279 37.6297C143.397 36.8522 144.511 36.0682 145.621 35.2813L144.464 33.6496C143.358 34.4341 142.249 35.2146 141.137 35.9879L142.279 37.6297ZM148.943 32.9139C150.051 32.1215 151.153 31.3317 152.257 30.5431L151.094 28.9159C149.991 29.704 148.885 30.4971 147.78 31.2872L148.943 32.9139ZM155.573 28.183C156.685 27.397 157.795 26.6181 158.904 25.8497L157.765 24.2056C156.649 24.9787 155.534 25.7614 154.419 26.5501L155.573 28.183ZM162.258 23.5607C163.387 22.8031 164.517 22.06 165.647 21.3349L164.567 19.6516C163.424 20.3851 162.283 21.1357 161.144 21.8998L162.258 23.5607ZM169.079 19.1931C170.242 18.4897 171.406 17.8092 172.572 17.1553L171.594 15.4108C170.407 16.0766 169.223 16.7683 168.044 17.4819L169.079 19.1931ZM176.131 15.2509C177.337 14.6373 178.547 14.0561 179.76 13.5114L178.941 11.6868C177.696 12.2458 176.457 12.8411 175.224 13.4682L176.131 15.2509ZM183.467 11.9705C184.725 11.4903 185.988 11.0532 187.258 10.6635L186.671 8.75154C185.356 9.15511 184.051 9.6069 182.753 10.1019L183.467 11.9705ZM191.12 9.63302C192.42 9.33945 193.728 9.09911 195.044 8.91653L194.769 6.93551C193.395 7.12615 192.032 7.37675 190.679 7.68213L191.12 9.63302ZM199.007 8.5471C199.669 8.51589 200.333 8.5 201 8.5V6.5C200.301 6.5 199.606 6.51665 198.913 6.54932L199.007 8.5471Z" fill="#67B765"/>
</svg>
