<svg width="317" height="275" viewBox="0 0 317 275" fill="none" xmlns="http://www.w3.org/2000/svg">
<path d="M407.61 -15.8903C407.61 48.4509 355.451 100.61 291.11 100.61C226.769 100.61 174.61 48.4509 174.61 -15.8903C174.61 -80.2314 226.769 -132.39 291.11 -132.39C355.451 -132.39 407.61 -80.2314 407.61 -15.8903Z" fill="#FFDC64"/>
<path fill-rule="evenodd" clip-rule="evenodd" d="M451.603 -14.4174C451.608 -14.9078 451.61 -15.3988 451.61 -15.8903C451.61 -16.3817 451.608 -16.8727 451.603 -17.3631L581.598 -18.5316C581.606 -17.6517 581.61 -16.7713 581.61 -15.8903C581.61 -15.0092 581.606 -14.1288 581.598 -13.2488L451.603 -14.4174ZM446.551 -56.0243L572.446 -88.4353C572.002 -90.1594 571.543 -91.8774 571.068 -93.5893L445.793 -58.8622C446.054 -57.9197 446.307 -56.9737 446.551 -56.0243ZM430.859 -94.8807L543.972 -158.954C543.1 -160.494 542.213 -162.026 541.314 -163.548L429.391 -97.4181C429.888 -96.5772 430.377 -95.7314 430.859 -94.8807ZM405.632 -128.34L498.387 -219.425C497.151 -220.684 495.904 -221.931 494.645 -223.167L403.559 -130.413C404.257 -129.728 404.948 -129.037 405.632 -128.34ZM372.638 -154.171L438.768 -266.094C437.246 -266.994 435.714 -267.88 434.173 -268.753L370.1 -155.639C370.951 -155.157 371.797 -154.668 372.638 -154.171ZM334.082 -170.573L368.809 -295.849C367.097 -296.323 365.379 -296.783 363.655 -297.226L331.244 -171.331C332.193 -171.087 333.139 -170.834 334.082 -170.573ZM292.583 -176.384L293.751 -306.378C292.871 -306.386 291.991 -306.39 291.11 -306.39C290.229 -306.39 289.348 -306.386 288.469 -306.378L289.637 -176.384C290.127 -176.388 290.618 -176.39 291.11 -176.39C291.601 -176.39 292.092 -176.388 292.583 -176.384ZM250.976 -171.331L218.565 -297.226C216.841 -296.783 215.123 -296.323 213.411 -295.849L248.138 -170.573C249.08 -170.834 250.026 -171.087 250.976 -171.331ZM212.119 -155.639L148.046 -268.753C146.506 -267.88 144.974 -266.994 143.452 -266.094L209.582 -154.171C210.423 -154.668 211.269 -155.157 212.119 -155.639ZM178.66 -130.413L87.5747 -223.167C86.3162 -221.931 85.0689 -220.684 83.833 -219.425L176.587 -128.34C177.272 -129.037 177.963 -129.728 178.66 -130.413ZM152.829 -97.4181L40.9058 -163.548C40.0063 -162.026 39.1201 -160.494 38.2474 -158.954L151.361 -94.8807C151.843 -95.7314 152.332 -96.5772 152.829 -97.4181ZM136.427 -58.8622L11.1514 -93.5893C10.6769 -91.8774 10.2176 -90.1594 9.77374 -88.4353L135.669 -56.0243C135.913 -56.9737 136.166 -57.9197 136.427 -58.8622ZM130.616 -17.3631C130.612 -16.8727 130.61 -16.3817 130.61 -15.8903C130.61 -15.3988 130.612 -14.9078 130.616 -14.4174L0.621735 -13.2489C0.613831 -14.1288 0.609863 -15.0093 0.609863 -15.8903C0.609863 -16.7713 0.613831 -17.6517 0.621735 -18.5317L130.616 -17.3631ZM135.669 24.2438L9.77374 56.6548C10.2176 58.3789 10.6769 60.0969 11.1514 61.8087L136.427 27.0817C136.166 26.1392 135.913 25.1932 135.669 24.2438ZM151.361 63.1002L38.2474 127.173C39.1201 128.714 40.0063 130.245 40.9058 131.768L152.829 65.6376C152.332 64.7967 151.843 63.9509 151.361 63.1002ZM176.587 96.5592L83.833 187.645C85.0689 188.903 86.3161 190.151 87.5746 191.387L178.66 98.6322C177.963 97.9474 177.272 97.2564 176.587 96.5592ZM209.582 122.391L143.452 234.314C144.974 235.213 146.506 236.099 148.046 236.972L212.119 123.859C211.269 123.377 210.423 122.887 209.582 122.391ZM248.138 138.792L213.411 264.068C215.123 264.543 216.841 265.002 218.565 265.446L250.976 139.551C250.026 139.307 249.08 139.054 248.138 138.792ZM289.637 144.603L288.468 274.598C289.348 274.606 290.229 274.61 291.11 274.61C291.991 274.61 292.871 274.606 293.751 274.598L292.583 144.603C292.092 144.608 291.601 144.61 291.11 144.61C290.618 144.61 290.127 144.608 289.637 144.603ZM331.244 139.551L363.655 265.446C365.379 265.002 367.097 264.543 368.809 264.068L334.082 138.792C333.139 139.054 332.193 139.307 331.244 139.551ZM370.1 123.859L434.173 236.972C435.714 236.099 437.246 235.213 438.768 234.314L372.638 122.391C371.797 122.887 370.951 123.377 370.1 123.859ZM403.559 98.6322L494.645 191.387C495.904 190.151 497.151 188.903 498.387 187.645L405.632 96.5592C404.948 97.2564 404.257 97.9475 403.559 98.6322ZM429.391 65.6376L541.314 131.768C542.213 130.245 543.1 128.714 543.972 127.173L430.859 63.1002C430.377 63.9509 429.888 64.7967 429.391 65.6376ZM445.793 27.0817L571.068 61.8088C571.543 60.0969 572.002 58.3789 572.446 56.6548L446.551 24.2438C446.307 25.1932 446.054 26.1392 445.793 27.0817Z" fill="#FFDC64"/>
<path fill-rule="evenodd" clip-rule="evenodd" d="M450.19 5.41125C450.255 4.92512 450.318 4.43823 450.379 3.95053C450.439 3.46284 450.498 2.97538 450.554 2.48818L539.96 12.8106C539.873 13.5657 539.782 14.3209 539.688 15.0762C539.594 15.8315 539.497 16.5859 539.396 17.3393L450.19 5.41125ZM450.32 -36.501L539.583 -47.9929C539.387 -49.5145 539.178 -51.0326 538.954 -52.5469L449.918 -39.4109C450.061 -38.4434 450.195 -37.4733 450.32 -36.501ZM439.551 -76.9993L522.744 -111.337C522.161 -112.748 521.566 -114.153 520.959 -115.551L438.408 -79.6986C438.797 -78.8028 439.178 -77.903 439.551 -76.9993ZM418.655 -113.32L490.172 -167.958C489.248 -169.167 488.313 -170.368 487.368 -171.56L416.854 -115.633C417.461 -114.868 418.061 -114.097 418.655 -113.32ZM389.106 -143.032L444.116 -214.264C442.909 -215.195 441.693 -216.117 440.468 -217.028L386.77 -144.803C387.554 -144.219 388.333 -143.629 389.106 -143.032ZM352.874 -164.074L387.452 -247.166C386.039 -247.755 384.619 -248.33 383.192 -248.894L350.151 -165.178C351.063 -164.818 351.971 -164.45 352.874 -164.074ZM312.411 -174.971L324.339 -264.177C323.586 -264.277 322.831 -264.375 322.076 -264.469C321.321 -264.563 320.566 -264.654 319.811 -264.741L309.488 -175.335C309.975 -175.278 310.463 -175.22 310.95 -175.159C311.438 -175.098 311.925 -175.036 312.411 -174.971ZM270.499 -175.101L259.007 -264.364C257.485 -264.168 255.967 -263.958 254.453 -263.735L267.589 -174.699C268.557 -174.841 269.527 -174.975 270.499 -175.101ZM230.001 -164.332L195.663 -247.524C194.252 -246.942 192.847 -246.347 191.449 -245.739L227.301 -163.189C228.197 -163.578 229.097 -163.959 230.001 -164.332ZM193.68 -143.435L139.042 -214.953C137.833 -214.029 136.632 -213.094 135.44 -212.148L191.367 -141.634C192.132 -142.242 192.903 -142.842 193.68 -143.435ZM163.968 -113.887L92.7364 -168.897C91.8045 -167.69 90.883 -166.474 89.9721 -165.249L162.197 -111.55C162.781 -112.335 163.371 -113.114 163.968 -113.887ZM142.926 -77.6543L59.8335 -112.233C59.2453 -110.82 58.6696 -109.4 58.1064 -107.973L141.822 -74.9319C142.182 -75.8438 142.55 -76.7513 142.926 -77.6543ZM132.029 -37.1918C131.964 -36.7057 131.902 -36.2188 131.841 -35.7311C131.78 -35.2434 131.722 -34.7559 131.665 -34.2687L42.2592 -44.5912C42.3464 -45.3463 42.437 -46.1015 42.5311 -46.8568C42.6252 -47.6121 42.7226 -48.3664 42.8233 -49.1198L132.029 -37.1918ZM131.899 4.72048L42.6361 16.2124C42.832 17.734 43.0417 19.252 43.2651 20.7664L132.301 7.63038C132.159 6.66281 132.025 5.6928 131.899 4.72048ZM142.668 45.2187L59.4757 79.5562C60.0582 80.9674 60.6532 82.3723 61.2606 83.7708L143.811 47.9181C143.422 47.0223 143.041 46.1224 142.668 45.2187ZM163.565 81.5395L92.0474 136.177C92.9713 137.386 93.9061 138.587 94.8518 139.78L165.366 83.8529C164.758 83.0872 164.158 82.3161 163.565 81.5395ZM193.113 111.252L138.103 182.483C139.31 183.415 140.526 184.336 141.751 185.247L195.449 113.022C194.665 112.439 193.886 111.849 193.113 111.252ZM229.346 132.294L194.767 215.386C196.18 215.974 197.6 216.55 199.027 217.113L232.068 133.397C231.156 133.037 230.249 132.67 229.346 132.294ZM269.808 143.19L257.88 232.396C258.634 232.497 259.388 232.594 260.143 232.688C260.899 232.782 261.654 232.873 262.409 232.96L272.731 143.554C272.244 143.498 271.757 143.439 271.269 143.379C270.781 143.318 270.294 143.255 269.808 143.19ZM311.72 143.32L323.212 232.583C324.734 232.387 326.252 232.178 327.766 231.954L314.63 142.918C313.663 143.061 312.693 143.195 311.72 143.32ZM352.219 132.551L386.556 215.744C387.967 215.161 389.372 214.566 390.771 213.959L354.918 131.408C354.022 131.797 353.122 132.178 352.219 132.551ZM388.539 111.655L443.177 183.172C444.386 182.248 445.587 181.313 446.78 180.368L390.853 109.854C390.087 110.461 389.316 111.061 388.539 111.655ZM418.252 82.1063L489.483 137.116C490.415 135.909 491.336 134.693 492.247 133.468L420.022 79.7699C419.439 80.5545 418.849 81.3333 418.252 82.1063ZM439.294 45.8737L522.386 80.4525C522.974 79.0393 523.55 77.6191 524.113 76.192L440.397 43.1514C440.037 44.0633 439.67 44.9707 439.294 45.8737Z" fill="#FFDC64"/>
</svg>
